<?xml version="1.0" encoding="UTF-8"?>
<svg version="1.1" xmlns="http://www.w3.org/2000/svg" width="175" height="216">
<path d="M0 0 C1.91606827 1.06878182 3.83276372 2.13643983 5.75 3.203125 C15.03790301 8.39155024 24.23380543 13.67444462 33.25390625 19.31640625 C36.73774744 21.4523032 40.30246096 23.40000782 43.90234375 25.33203125 C57.80807021 32.81973012 71.54484279 40.6340769 85.26708984 48.45117188 C87.81214887 49.89353872 90.36731975 51.31596687 92.92578125 52.734375 C106.91773375 60.5776667 116.62843827 69.08786464 121.375 85.0625 C123.05849289 95.66850519 122.19696407 105.9628986 116.57421875 115.390625 C115.125401 117.35233172 113.61446489 119.17280562 112 121 C111.26007813 121.96550781 110.52015625 122.93101562 109.7578125 123.92578125 C106.90169492 127.34747721 103.61581994 129.48567167 99.8125 131.75 C99.11253906 132.17700195 98.41257813 132.60400391 97.69140625 133.04394531 C91.96299414 136.50486096 86.12589304 139.76380935 80.25683594 142.97875977 C73.95779059 146.43608573 67.75610656 150.04521265 61.5625 153.6875 C51.65808277 159.50451932 41.65102 165.11281027 31.59619141 170.66357422 C25.32583058 174.13176249 19.09647203 177.6501506 12.9375 181.3125 C7.14120223 184.75472118 1.31443995 188.1344728 -4.5625 191.4375 C-5.28896729 191.85104736 -6.01543457 192.26459473 -6.76391602 192.69067383 C-14.22145217 196.85287945 -21.28586417 200.16398204 -30 199 C-33.6875 197.75 -33.6875 197.75 -37 196 C-38.03125 195.46375 -39.0625 194.9275 -40.125 194.375 C-44.85642734 190.46642959 -47.8190108 185.03245384 -49 179 C-49.09628695 176.73767864 -49.13493082 174.47270627 -49.14044189 172.20834351 C-49.14341302 171.52594467 -49.14638414 170.84354583 -49.1494453 170.14046824 C-49.15811462 167.85453799 -49.15963906 165.56866022 -49.16113281 163.28271484 C-49.16576235 161.64319752 -49.17078719 160.00368126 -49.17617798 158.36416626 C-49.18929352 153.90932871 -49.19574564 149.45450623 -49.20018864 144.99965239 C-49.20312157 142.21419924 -49.20722686 139.42875019 -49.21169281 136.6432991 C-49.22536736 127.92198213 -49.23503344 119.20067454 -49.2388947 110.47934759 C-49.24337132 100.42411832 -49.26090096 90.36902527 -49.2898953 80.31383741 C-49.31154546 72.53446882 -49.32160081 64.75513846 -49.32293582 56.97574008 C-49.32398173 52.33309161 -49.32984362 47.6905712 -49.34775543 43.04795456 C-49.36429318 38.67635055 -49.36636407 34.30497004 -49.35761642 29.93334579 C-49.35684901 28.33465474 -49.36114946 26.73595139 -49.37107468 25.13729095 C-49.43335667 14.47436358 -49.44277054 3.42208246 -42 -5 C-26.71050154 -15.55635165 -14.3779924 -8.1571737 0 0 Z " fill="#20304E" transform="translate(51,14)"/>
<path d="M0 0 C2.35963768 1.08330131 4.47174058 2.17953931 6.6875 3.5 C7.33960449 3.87801758 7.99170898 4.25603516 8.66357422 4.64550781 C11.11912641 6.08052088 13.55962485 7.53931858 16 9 C17.11487793 9.66322266 18.22975586 10.32644531 19.37841797 11.00976562 C22.50126926 12.86893002 25.61867078 14.7369739 28.73257446 16.61108398 C29.98528174 17.36499919 31.23867055 18.11778321 32.49276733 18.86938477 C34.28237208 19.94396349 36.06749751 21.02562945 37.8515625 22.109375 C38.89135254 22.73811523 39.93114258 23.36685547 41.00244141 24.01464844 C45.32421907 26.87706055 49.09010513 29.6351577 52 34 C52.49956315 39.29536934 51.77789998 42.49027117 49 47 C46.93616575 48.62870668 45.0688285 49.89033349 42.8125 51.1875 C42.15556152 51.58187256 41.49862305 51.97624512 40.82177734 52.38256836 C39.22835425 53.33540283 37.63019473 54.2803368 36.02880859 55.21972656 C32.30675726 57.40747429 28.60095515 59.62185353 24.89453125 61.8359375 C19.14611012 65.26578661 13.39350165 68.68844772 7.6328125 72.09765625 C6.99386551 72.47638885 6.35491852 72.85512146 5.6966095 73.24533081 C0.67552585 76.2133234 -2.02715844 77.59728416 -8 77 C-10.97672584 75.22719439 -13.42804007 73.14391985 -15 70 C-15.10672993 68.02518315 -15.1488532 66.04675256 -15.16113281 64.0690918 C-15.17554413 62.20156502 -15.17554413 62.20156502 -15.19024658 60.29631042 C-15.1950949 58.93061506 -15.19937364 57.56491757 -15.203125 56.19921875 C-15.20887724 54.80157977 -15.21463496 53.40394081 -15.22039795 52.00630188 C-15.23090901 49.07328931 -15.23675068 46.14030415 -15.24023438 43.20727539 C-15.2457131 39.45454847 -15.26972693 35.70218549 -15.29820633 31.94957256 C-15.31686124 29.0610296 -15.32203986 26.17257371 -15.32357025 23.2839756 C-15.32659194 21.90091784 -15.33460418 20.51786143 -15.34775543 19.1348629 C-15.36487018 17.19634592 -15.36108302 15.25767878 -15.35644531 13.3190918 C-15.36191376 11.66601265 -15.36191376 11.66601265 -15.36749268 9.97953796 C-14.82189637 5.55598064 -13.14208665 2.95173888 -9.75 0.125 C-6.05152255 -1.3880135 -3.89459685 -0.82034261 0 0 Z " fill="#FEFEFE" transform="translate(60,70)"/>
</svg>
