<svg width="216" height="225" version="1.1" xmlns="http://www.w3.org/2000/svg" desc="Created with imagetracer.js version 1.2.6" ><path fill="rgb(27,44,79)" stroke="rgb(27,44,79)" stroke-width="1" opacity="0.5294117647058824" d="M 23.5 7 L 35 7.5 L 23.5 8 L 23.5 7 Z " /><path fill="rgb(27,44,79)" stroke="rgb(27,44,79)" stroke-width="1" opacity="0.5294117647058824" d="M 36.5 8 L 40 9.5 L 38.5 10 L 36.5 8 Z " /><path fill="rgb(27,44,79)" stroke="rgb(27,44,79)" stroke-width="1" opacity="0.5294117647058824" d="M 17.5 9 L 19 9.5 L 16.5 11 L 17.5 9 Z " /><path fill="rgb(27,44,79)" stroke="rgb(27,44,79)" stroke-width="1" opacity="0.5294117647058824" d="M 14.5 11 L 13.5 13 L 10.5 15 L 12.5 12 L 14.5 11 Z " /><path fill="rgb(27,44,79)" stroke="rgb(27,44,79)" stroke-width="1" opacity="0.5294117647058824" d="M 8.5 17 L 7 19.5 L 3.5 28 L 3 25.5 L 8.5 17 Z " /><path fill="rgb(27,44,79)" stroke="rgb(27,44,79)" stroke-width="1" opacity="0.5294117647058824" d="M 71.5 25 L 88 33.5 L 86.5 33 L 71.5 26 L 71.5 25 Z " /><path fill="rgb(27,44,79)" stroke="rgb(27,44,79)" stroke-width="1" opacity="0.5294117647058824" d="M 2.5 30 L 3 195.5 L 2 195.5 L 2.5 30 Z " /><path fill="rgb(27,44,79)" stroke="rgb(27,44,79)" stroke-width="1" opacity="0.5294117647058824" d="M 91.5 35 L 200.5 89 L 210 97.5 L 212 101.5 L 210 100.5 Q 208.6 94.4 203.5 92 L 91.5 36 L 91.5 35 Z " /><path fill="rgb(27,44,79)" stroke="rgb(27,44,79)" stroke-width="1" opacity="0.5294117647058824" d="M 213.5 106 L 214 109.5 L 213 109.5 L 213.5 106 Z " /><path fill="rgb(27,44,79)" stroke="rgb(27,44,79)" stroke-width="1" opacity="0.5294117647058824" d="M 213.5 116 L 214 119.5 L 213 119.5 L 213.5 116 Z " /><path fill="rgb(27,44,79)" stroke="rgb(27,44,79)" stroke-width="1" opacity="0.5294117647058824" d="M 211.5 124 L 211 125.5 Q 209.4 132.4 203.5 135 L 91.5 191 L 91.5 190 L 200.5 136 L 209 128.5 L 211.5 124 Z " /><path fill="rgb(27,44,79)" stroke="rgb(27,44,79)" stroke-width="1" opacity="0.5294117647058824" d="M 87.5 192 L 86.5 194 L 71.5 201 L 71.5 200 L 87.5 192 Z " /><path fill="rgb(27,44,79)" stroke="rgb(27,44,79)" stroke-width="1" opacity="0.5294117647058824" d="M 3.5 197 Q 4 205 9 208.5 L 6 206.5 L 3 200.5 L 3.5 197 Z " /><path fill="rgb(27,44,79)" stroke="rgb(27,44,79)" stroke-width="1" opacity="0.5294117647058824" d="M 11.5 211 L 14.5 215 L 11.5 211 Z " /><path fill="rgb(27,44,79)" stroke="rgb(27,44,79)" stroke-width="1" opacity="0.5294117647058824" d="M 16.5 215 L 19 216.5 L 17.5 217 L 16.5 215 Z " /><path fill="rgb(27,44,79)" stroke="rgb(27,44,79)" stroke-width="1" opacity="0.5294117647058824" d="M 38.5 216 L 40 216.5 L 36.5 218 L 36.5 217 L 38.5 216 Z " /><path fill="rgb(27,44,79)" stroke="rgb(27,44,79)" stroke-width="1" opacity="0.5294117647058824" d="M 23.5 218 L 35 218.5 L 23.5 219 L 23.5 218 Z " /><path fill="rgb(28,45,79)" stroke="rgb(28,45,79)" stroke-width="1" opacity="1" d="M 22.5 8 L 35.5 8 L 40.5 10 L 200.5 90 L 209 97.5 Q 214.3 103.7 214 115.5 L 212 123.5 L 203.5 134 L 40.5 216 L 35.5 218 L 22.5 218 Q 14 215.5 9 209.5 L 3 196.5 L 3 28.5 Q 5.9 18.9 12.5 13 L 22.5 8 Z M 59 71 L 51 78 L 51 149 L 52 151 L 59 155 L 64 155 L 130 122 L 134 116 L 133 108 L 130 104 L 66 72 L 59 71 Z " /><path fill="rgb(0,0,0)" stroke="rgb(0,0,0)" stroke-width="1" opacity="0" d="M 0 0 L 216 0 L 216 225 L 0 225 L 0 0 Z M 24 7 L 13 12 Q 4 18 2 31 L 2 196 L 6 207 Q 12 216 24 219 Q 32 220 38 218 L 204 135 Q 211 130 214 120 Q 216 105 210 98 L 201 89 L 38 8 Q 32 6 24 7 Z " /><path fill="rgb(174,180,192)" stroke="rgb(174,180,192)" stroke-width="1" opacity="1" d="M 58.5 71 L 63 71.5 L 58.5 72 L 58.5 71 Z " /><path fill="rgb(174,180,192)" stroke="rgb(174,180,192)" stroke-width="1" opacity="1" d="M 56.5 72 L 55.5 74 L 56.5 72 Z " /><path fill="rgb(174,180,192)" stroke="rgb(174,180,192)" stroke-width="1" opacity="1" d="M 129.5 104 L 133 108.5 L 132 108.5 L 129.5 104 Z " /><path fill="rgb(174,180,192)" stroke="rgb(174,180,192)" stroke-width="1" opacity="1" d="M 132.5 117 L 133 118.5 L 129 121.5 L 132.5 117 Z " /><path fill="rgb(174,180,192)" stroke="rgb(174,180,192)" stroke-width="1" opacity="1" d="M 52.5 150 L 53.5 152 L 52.5 150 Z " /><path fill="rgb(174,180,192)" stroke="rgb(174,180,192)" stroke-width="1" opacity="1" d="M 58.5 154 L 64 154.5 L 58.5 155 L 58.5 154 Z " /><path fill="rgb(255,255,255)" stroke="rgb(255,255,255)" stroke-width="1" opacity="1" d="M 57.5 72 L 64.5 72 L 128.5 104 L 132 107.5 L 134 113.5 Q 132.8 119.3 128.5 122 L 64.5 154 L 57.5 154 L 52 149.5 L 51 146.5 L 51 79.5 L 54.5 74 L 57.5 72 Z " /></svg>