<?xml version="1.0" encoding="UTF-8"?>
<svg version="1.1" xmlns="http://www.w3.org/2000/svg" width="322" height="282">
<path d="M0 0 C106.26 0 212.52 0 322 0 C322 93.06 322 186.12 322 282 C215.74 282 109.48 282 0 282 C0 188.94 0 95.88 0 0 Z " fill="#FEFEFE" transform="translate(0,0)"/>
<path d="M0 0 C0 1.32 0 2.64 0 4 C-2.27954776 5.61695921 -4.43080824 6.93167954 -6.875 8.25 C-13.43698926 11.98605683 -19.28122791 16.04180534 -25 21 C-25.80695313 21.67417969 -26.61390625 22.34835938 -27.4453125 23.04296875 C-47.82601037 40.58059121 -61.85244923 65.22698991 -69 91 C-69.29632324 92.0513916 -69.29632324 92.0513916 -69.59863281 93.12402344 C-76.78624478 119.76877155 -75.57237495 148.14764457 -61.97851562 172.30810547 C-59.83120091 176.02090261 -57.5758134 179.57036545 -55 183 C-54.58878906 183.57492188 -54.17757812 184.14984375 -53.75390625 184.7421875 C-41.95498782 199.93723379 -22.55587049 208.27468058 -4 211 C11.35155932 212.27581079 26.43301486 208.4786167 38.6484375 198.9296875 C46.52678437 192.1396408 52.14990668 185.03955501 56.70703125 175.69921875 C57.02595337 175.05319702 57.34487549 174.40717529 57.67346191 173.74157715 C58.45231805 172.16269634 59.22662858 170.58157457 60 169 C67.24486551 168.97473261 74.48971974 168.9571682 81.73461914 168.94506836 C84.20142033 168.94002644 86.66821852 168.93319309 89.13500977 168.92456055 C92.67204529 168.91248875 96.20904145 168.90677044 99.74609375 168.90234375 C100.85649521 168.89718246 101.96689667 168.89202118 103.11094666 168.88670349 C104.64242088 168.88659019 104.64242088 168.88659019 106.20483398 168.88647461 C107.10862289 168.884254 108.0124118 168.88203339 108.94358826 168.87974548 C111 169 111 169 112 170 C111.56483005 194.36951746 93.36597633 218.60930165 77 235 C54.69049098 255.45599996 26.41244205 266.78513974 -3.99609375 266.24609375 C-35.13772514 264.68083546 -62.66285257 251.35572619 -85 230 C-85.66128906 229.401875 -86.32257813 228.80375 -87.00390625 228.1875 C-109.84353313 206.77823359 -124.04079733 173.19148297 -125.06201172 142.11279297 C-126.05439125 106.55936086 -115.49519191 74.52260738 -93 47 C-92.2886792 46.12964111 -92.2886792 46.12964111 -91.56298828 45.24169922 C-71.27811079 20.90408254 -39.89365824 3.63707779 -8.25 0.25 C-5.47553375 0.03657952 -2.79201136 0 0 0 Z " fill="#1F2F4A" transform="translate(131,5)"/>
<path d="M0 0 C1.08169428 0.85624137 2.16472522 1.71080142 3.25 2.5625 C6.87290301 5.77370949 9.93010007 9.26273052 13 13 C13.77601563 13.9384375 14.55203125 14.876875 15.3515625 15.84375 C38.08729737 43.97877715 47.79562724 79.59787222 44.79345703 115.46777344 C40.76897725 151.39139072 22.71658182 184.00263287 -5 207 C-24.94597986 222.60648752 -53.00290888 236.85154248 -79 236 C-78.921875 234.25390625 -78.921875 234.25390625 -78 232 C-75.76602167 230.49176597 -73.61232402 229.2088514 -71.25 227.9375 C-63.34183832 223.4391059 -56.69495137 218.13182462 -50 212 C-48.78376953 210.89011719 -48.78376953 210.89011719 -47.54296875 209.7578125 C-20.90396511 184.28514002 -6.63790611 147.35795026 -5.8125 110.875 C-6.16982545 85.75502078 -13.4699258 63.2293646 -31.08203125 44.82421875 C-44.16137589 32.32725681 -61.89820405 25.12628474 -79.92578125 24.96484375 C-96.64953416 25.43196519 -111.48602807 30.96511129 -123.71484375 42.515625 C-129.49915871 48.80421357 -133.35302929 56.31618875 -136.95703125 64.00390625 C-138 66 -138 66 -140 68 C-142.16993713 68.24723816 -142.16993713 68.24723816 -144.89282227 68.24291992 C-145.91050186 68.24599655 -146.92818146 68.24907318 -147.97669983 68.25224304 C-149.07880295 68.24505753 -150.18090607 68.23787201 -151.31640625 68.23046875 C-152.44320297 68.23001053 -153.56999969 68.22955231 -154.73094177 68.2290802 C-157.11580456 68.22605536 -159.50066533 68.21816221 -161.88549805 68.20581055 C-165.55068909 68.18755882 -169.21562765 68.18530077 -172.88085938 68.18554688 C-175.19271053 68.18063173 -177.50455997 68.17480342 -179.81640625 68.16796875 C-180.9205336 68.16685593 -182.02466095 68.1657431 -183.1622467 68.16459656 C-184.17677414 68.15821671 -185.19130157 68.15183685 -186.23657227 68.14526367 C-187.58320702 68.13954597 -187.58320702 68.13954597 -188.95704651 68.13371277 C-191 68 -191 68 -192 67 C-192.01479473 60.0134084 -190.25447039 54.06581858 -187.4375 47.75 C-187.07889893 46.92862549 -186.72029785 46.10725098 -186.35083008 45.26098633 C-172.94052344 15.14717945 -149.59103927 -9.6040714 -118.65527344 -21.93457031 C-110.33785952 -25.02759795 -101.81589027 -27.80066511 -93 -29 C-92.20851563 -29.10957031 -91.41703125 -29.21914063 -90.6015625 -29.33203125 C-57.16664537 -33.28726593 -25.07028605 -21.73897036 0 0 Z " fill="#1F2F49" transform="translate(271,39)"/>
</svg>
