<?xml version="1.0" encoding="UTF-8"?>
<svg version="1.1" xmlns="http://www.w3.org/2000/svg" width="282" height="282">
<path d="M0 0 C1.12317627 0.00081573 1.12317627 0.00081573 2.26904297 0.00164795 C14.4177615 0.04213072 25.77698766 0.98835199 37.5 4.375 C38.23460449 4.57335449 38.96920898 4.77170898 39.72607422 4.97607422 C59.33498748 10.35195295 76.9333973 20.42131522 92.5 33.375 C93.02803223 33.81199219 93.55606445 34.24898437 94.10009766 34.69921875 C101.11887215 40.58783239 106.95793116 47.10163915 112.5 54.375 C113.68529297 55.86 113.68529297 55.86 114.89453125 57.375 C133.37719309 81.19278775 141.95666297 111.05399482 141.875 140.875 C141.87418427 141.99817627 141.87418427 141.99817627 141.87335205 143.14404297 C141.83286928 155.2927615 140.88664801 166.65198766 137.5 178.375 C137.20246826 179.47690674 137.20246826 179.47690674 136.89892578 180.60107422 C131.52304705 200.20998748 121.45368478 217.8083973 108.5 233.375 C108.06300781 233.90303223 107.62601563 234.43106445 107.17578125 234.97509766 C101.28716761 241.99387215 94.77336085 247.83293116 87.5 253.375 C86.51 254.16519531 85.52 254.95539063 84.5 255.76953125 C60.68221225 274.25219309 30.82100518 282.83166297 1 282.75 C-0.12317627 282.74918427 -0.12317627 282.74918427 -1.26904297 282.74835205 C-13.4177615 282.70786928 -24.77698766 281.76164801 -36.5 278.375 C-37.23460449 278.17664551 -37.96920898 277.97829102 -38.72607422 277.77392578 C-58.33498748 272.39804705 -75.9333973 262.32868478 -91.5 249.375 C-92.02803223 248.93800781 -92.55606445 248.50101563 -93.10009766 248.05078125 C-100.11887215 242.16216761 -105.95793116 235.64836085 -111.5 228.375 C-112.29019531 227.385 -113.08039063 226.395 -113.89453125 225.375 C-132.37719309 201.55721225 -140.95666297 171.69600518 -140.875 141.875 C-140.87445618 141.12621582 -140.87391235 140.37743164 -140.87335205 139.60595703 C-140.83286928 127.4572385 -139.88664801 116.09801234 -136.5 104.375 C-136.30164551 103.64039551 -136.10329102 102.90579102 -135.89892578 102.14892578 C-130.52304705 82.54001252 -120.45368478 64.9416027 -107.5 49.375 C-107.06300781 48.84696777 -106.62601563 48.31893555 -106.17578125 47.77490234 C-100.28716761 40.75612785 -93.77336085 34.91706884 -86.5 29.375 C-85.51 28.58480469 -84.52 27.79460938 -83.5 26.98046875 C-59.68221225 8.49780691 -29.82100518 -0.08166297 0 0 Z " fill="#FEFEFE" transform="translate(140.5,-0.375)"/>
<path d="M0 0 C0 1.32 0 2.64 0 4 C-2.27954776 5.61695921 -4.43080824 6.93167954 -6.875 8.25 C-13.43698926 11.98605683 -19.28122791 16.04180534 -25 21 C-25.80695313 21.67417969 -26.61390625 22.34835938 -27.4453125 23.04296875 C-47.82601037 40.58059121 -61.85244923 65.22698991 -69 91 C-69.29632324 92.0513916 -69.29632324 92.0513916 -69.59863281 93.12402344 C-76.78624478 119.76877155 -75.57237495 148.14764457 -61.97851562 172.30810547 C-59.83120091 176.02090261 -57.5758134 179.57036545 -55 183 C-54.58878906 183.57492188 -54.17757812 184.14984375 -53.75390625 184.7421875 C-41.95498782 199.93723379 -22.55587049 208.27468058 -4 211 C11.35155932 212.27581079 26.43301486 208.4786167 38.6484375 198.9296875 C46.52678437 192.1396408 52.14990668 185.03955501 56.70703125 175.69921875 C57.02595337 175.05319702 57.34487549 174.40717529 57.67346191 173.74157715 C58.45231805 172.16269634 59.22662858 170.58157457 60 169 C67.24486551 168.97473261 74.48971974 168.9571682 81.73461914 168.94506836 C84.20142033 168.94002644 86.66821852 168.93319309 89.13500977 168.92456055 C92.67204529 168.91248875 96.20904145 168.90677044 99.74609375 168.90234375 C100.85649521 168.89718246 101.96689667 168.89202118 103.11094666 168.88670349 C104.64242088 168.88659019 104.64242088 168.88659019 106.20483398 168.88647461 C107.10862289 168.884254 108.0124118 168.88203339 108.94358826 168.87974548 C111 169 111 169 112 170 C111.56483005 194.36951746 93.36597633 218.60930165 77 235 C54.67036286 255.4744558 26.44315504 266.73176422 -3.98046875 266.25390625 C-21.62389712 265.37504711 -38.78571665 261.82898745 -53 251 C-53.86367188 250.34644531 -54.72734375 249.69289062 -55.6171875 249.01953125 C-58.12453096 247.06286602 -60.56993977 245.05170414 -63 243 C-64.25103516 241.95199219 -64.25103516 241.95199219 -65.52734375 240.8828125 C-71.78802926 235.46138683 -76.97527248 229.57013341 -82 223 C-82.79148437 222.00871094 -83.58296875 221.01742187 -84.3984375 219.99609375 C-102.87691963 196.17628986 -111.45666207 166.32067802 -111.375 136.5 C-111.37445618 135.75121582 -111.37391235 135.00243164 -111.37335205 134.23095703 C-111.33286928 122.0822385 -110.38664801 110.72301234 -107 99 C-106.80164551 98.26539551 -106.60329102 97.53079102 -106.39892578 96.77392578 C-101.02304705 77.16501252 -90.95368478 59.5666027 -78 44 C-77.56300781 43.47196777 -77.12601563 42.94393555 -76.67578125 42.39990234 C-70.78716761 35.38112785 -64.27336085 29.54206884 -57 24 C-56.01 23.20980469 -55.02 22.41960938 -54 21.60546875 C-38.70457394 9.73642479 -19.71670682 0 0 0 Z " fill="#1F2F4A" transform="translate(111,5)"/>
<path d="M0 0 C5.23511259 4.91475495 9.71560643 10.23267632 14.0625 15.9375 C15.24779297 17.4225 15.24779297 17.4225 16.45703125 18.9375 C34.93969309 42.75528775 43.51916297 72.61649482 43.4375 102.4375 C43.43695618 103.18628418 43.43641235 103.93506836 43.43585205 104.70654297 C43.39536928 116.8552615 42.44914801 128.21448766 39.0625 139.9375 C38.86414551 140.67210449 38.66579102 141.40670898 38.46142578 142.16357422 C33.08554705 161.77248748 23.01618478 179.3708973 10.0625 194.9375 C9.62550781 195.46553223 9.18851563 195.99356445 8.73828125 196.53759766 C2.85298772 203.55241483 -3.65603277 209.41164345 -10.9375 214.9375 C-11.46327637 215.34355469 -11.98905273 215.74960938 -12.53076172 216.16796875 C-28.29117333 228.27345478 -46.37322243 237.95932746 -66.9375 236.9375 C-66.859375 235.19140625 -66.859375 235.19140625 -65.9375 232.9375 C-63.70352167 231.42926597 -61.54982402 230.1463514 -59.1875 228.875 C-51.27933832 224.3766059 -44.63245137 219.06932462 -37.9375 212.9375 C-36.72126953 211.82761719 -36.72126953 211.82761719 -35.48046875 210.6953125 C-8.84146511 185.22264002 5.42459389 148.29545026 6.25 111.8125 C5.89267455 86.69252078 -1.4074258 64.1668646 -19.01953125 45.76171875 C-32.09887589 33.26475681 -49.83570405 26.06378474 -67.86328125 25.90234375 C-84.58703416 26.36946519 -99.42352807 31.90261129 -111.65234375 43.453125 C-117.43665871 49.74171357 -121.29052929 57.25368875 -124.89453125 64.94140625 C-125.9375 66.9375 -125.9375 66.9375 -127.9375 68.9375 C-130.10743713 69.18473816 -130.10743713 69.18473816 -132.83032227 69.18041992 C-133.84800186 69.18349655 -134.86568146 69.18657318 -135.91419983 69.18974304 C-137.01630295 69.18255753 -138.11840607 69.17537201 -139.25390625 69.16796875 C-140.38070297 69.16751053 -141.50749969 69.16705231 -142.66844177 69.1665802 C-145.05330456 69.16355536 -147.43816533 69.15566221 -149.82299805 69.14331055 C-153.48818909 69.12505882 -157.15312765 69.12280077 -160.81835938 69.12304688 C-163.13021053 69.11813173 -165.44205997 69.11230342 -167.75390625 69.10546875 C-168.8580336 69.10435593 -169.96216095 69.1032431 -171.0997467 69.10209656 C-172.11427414 69.09571671 -173.12880157 69.08933685 -174.17407227 69.08276367 C-175.52070702 69.07704597 -175.52070702 69.07704597 -176.89454651 69.07121277 C-178.9375 68.9375 -178.9375 68.9375 -179.9375 67.9375 C-179.95229473 60.9509084 -178.19197039 55.00331858 -175.375 48.6875 C-175.01639893 47.86612549 -174.65779785 47.04475098 -174.28833008 46.19848633 C-160.87802344 16.08467945 -137.52853927 -8.6665714 -106.59277344 -20.99707031 C-98.27535952 -24.09009795 -89.75339027 -26.86316511 -80.9375 -28.0625 C-80.14601563 -28.17207031 -79.35453125 -28.28164063 -78.5390625 -28.39453125 C-46.56742828 -32.17666464 -23.38342658 -20.53817047 0 0 Z " fill="#1E2E49" transform="translate(238.9375,38.0625)"/>
</svg>
