<?xml version="1.0" encoding="UTF-8"?>
<svg version="1.1" xmlns="http://www.w3.org/2000/svg" width="175" height="216">
<path d="M0 0 C109.3125 0 109.3125 0 141.8125 31.5 C163.17184838 53.83377121 173.61654607 81.89615187 173.2109375 112.6640625 C172.51311551 136.55369695 163.82995045 160.02105055 148 178 C147.33613281 178.80695313 146.67226562 179.61390625 145.98828125 180.4453125 C128.4400134 201.1399426 105.01649025 210.79670195 79 216 C52.93 216 26.86 216 0 216 C0 144.72 0 73.44 0 0 Z " fill="#1E2F4D" transform="translate(0,0)"/>
<path d="M0 0 C1.05227783 0.58386475 2.10455566 1.16772949 3.1887207 1.76928711 C6.40540925 3.56025769 9.6104076 5.3705824 12.8125 7.1875 C13.74449219 7.71408203 14.67648438 8.24066406 15.63671875 8.78320312 C20.85218234 11.73355662 26.04969241 14.71407163 31.24023438 17.70800781 C33.82754967 19.19615613 36.42048991 20.67397311 39.015625 22.1484375 C44.29038998 25.14565311 49.55457953 28.16083851 54.8125 31.1875 C55.78558105 31.74679199 56.75866211 32.30608398 57.76123047 32.88232422 C60.74168437 34.60053635 63.71540503 36.32987632 66.6875 38.0625 C67.59685303 38.58577881 68.50620605 39.10905762 69.44311523 39.64819336 C83.25939426 47.75042 83.25939426 47.75042 86.6875 55.375 C87.27144531 56.63376953 87.27144531 56.63376953 87.8671875 57.91796875 C90.95778763 65.33796327 90.82050698 73.50859856 87.89453125 81.00390625 C84.53915403 87.77522707 80.38504346 92.0950573 73.8984375 95.98046875 C73.33072632 96.3222113 72.76301514 96.66395386 72.17810059 97.01605225 C65.94378363 100.74974444 59.63294418 104.35217979 53.3125 107.9375 C52.07880452 108.63965669 50.84524563 109.34205343 49.61181641 110.04467773 C47.15229919 111.44540528 44.69218478 112.84507312 42.23144531 114.24365234 C37.54701681 116.9069928 32.86661313 119.57733536 28.1875 122.25 C26.96861084 122.9452478 26.96861084 122.9452478 25.72509766 123.65454102 C20.75397457 126.49359173 15.79532527 129.35357406 10.84375 132.2265625 C9.64406093 132.92182461 8.44435394 133.61705581 7.24462891 134.31225586 C4.91175203 135.66416545 2.58110878 137.01970047 0.25146484 138.37719727 C-0.80347168 138.98877686 -1.8584082 139.60035645 -2.9453125 140.23046875 C-3.8852002 140.77727295 -4.82508789 141.32407715 -5.79345703 141.88745117 C-11.09234554 144.76493244 -16.28615145 144.78778044 -22.1875 144.1875 C-27.10756067 141.86165314 -29.49981435 138.86606392 -32.1875 134.1875 C-33.17771917 131.21684248 -33.31772507 129.26627233 -33.32794189 126.1663208 C-33.33365204 125.12895782 -33.33936218 124.09159485 -33.34524536 123.02279663 C-33.34636322 121.8850882 -33.34748108 120.74737976 -33.34863281 119.57519531 C-33.35359772 118.37655853 -33.35856262 117.17792175 -33.36367798 115.94296265 C-33.37578771 112.65350271 -33.3832453 109.36410636 -33.38768864 106.07463169 C-33.39062155 104.01804137 -33.39472683 101.9614566 -33.39919281 99.90486908 C-33.41286661 93.46613124 -33.42253324 87.02740611 -33.4263947 80.58865476 C-33.43087216 73.1640681 -33.44840587 65.73966584 -33.4773953 58.31513524 C-33.49904045 52.57148465 -33.50910053 46.82788583 -33.51043582 41.0841949 C-33.51148204 37.65612747 -33.5173502 34.22823341 -33.53525543 30.80020905 C-33.55231286 26.97245836 -33.55043594 23.1451561 -33.54394531 19.31738281 C-33.5531601 18.1877713 -33.56237488 17.05815979 -33.5718689 15.89431763 C-33.53544447 9.03579001 -33.13977047 3.62610736 -28.50390625 -1.7734375 C-27.92511719 -2.24007812 -27.34632812 -2.70671875 -26.75 -3.1875 C-25.88568359 -3.91066406 -25.88568359 -3.91066406 -25.00390625 -4.6484375 C-16.54427599 -10.06987797 -7.56815422 -4.29361923 0 0 Z " fill="#FEFEFE" transform="translate(59.1875,38.8125)"/>
<path d="M0 0 C4.58917085 1.66144577 8.66560389 4.31630564 12.80273438 6.86816406 C13.77831299 7.45911865 14.7538916 8.05007324 15.7590332 8.65893555 C18.53047822 10.34273135 21.29186995 12.04210001 24.05273438 13.74316406 C25.31117164 14.50340096 26.57016647 15.26271687 27.83007812 16.02050781 C35.54224186 20.75132503 35.54224186 20.75132503 38.05273438 24.74316406 C38.59594281 28.39042069 38.48963952 30.08539925 36.43530273 33.17822266 C33.7519981 36.06692012 30.89208457 37.93192569 27.49414062 39.84472656 C26.86797348 40.20786957 26.24180634 40.57101257 25.59666443 40.94515991 C23.60814065 42.09563564 21.61202311 43.23210589 19.61523438 44.36816406 C18.27811009 45.13806769 16.94151595 45.90889283 15.60546875 46.68066406 C13.14656888 48.10002327 10.68442218 49.51340225 8.21899414 50.92138672 C6.23766531 52.06138793 4.27959495 53.24400413 2.36108398 54.48681641 C-1.05942934 56.34847284 -3.27433322 55.76342306 -6.94726562 54.74316406 C-9.65518572 51.9069214 -10.32708597 49.91527058 -10.3671875 46.03808594 C-10.38309937 45.11032349 -10.39901123 44.18256104 -10.41540527 43.22668457 C-10.41560669 42.2318103 -10.41580811 41.23693604 -10.41601562 40.21191406 C-10.42362915 39.18384644 -10.43124268 38.15577881 -10.43908691 37.09655762 C-10.44988455 34.92458524 -10.4527424 32.75256096 -10.44824219 30.58056641 C-10.44726908 27.25498151 -10.48891236 23.93169754 -10.53320312 20.60644531 C-10.53840952 18.49577304 -10.54109833 16.38509275 -10.54101562 14.27441406 C-10.55741089 13.27953979 -10.57380615 12.28466553 -10.59069824 11.25964355 C-10.52183207 4.39359628 -10.52183207 4.39359628 -7.60644531 1.09326172 C-4.80283039 -0.33016745 -3.08635966 -0.66565271 0 0 Z " fill="#1E2F4D" transform="translate(66.947265625,80.2568359375)"/>
</svg>
